<svg width="627" height="71" viewBox="0 0 627 71" fill="none" xmlns="http://www.w3.org/2000/svg">
<path d="M26.888 6.64C36.808 6.64 44.392 9.392 49.64 14.896C54.952 20.4 57.608 28.208 57.608 38.32C57.608 48.432 54.952 56.24 49.64 61.744C44.392 67.248 36.808 70 26.888 70H0.00800061V6.64H26.888ZM25.256 57.52C30.632 57.52 34.536 55.92 36.968 52.72C39.464 49.456 40.712 44.656 40.712 38.32C40.712 31.984 39.464 27.216 36.968 24.016C34.536 20.752 30.632 19.12 25.256 19.12H16.52V57.52H25.256ZM92.0638 39.568C92.0638 37.328 91.4238 35.568 90.1438 34.288C88.9278 32.944 87.2638 32.272 85.1518 32.272C83.0398 32.272 81.2158 32.816 79.6798 33.904C78.2078 34.928 77.1838 36.784 76.6078 39.472L62.7838 36.208C63.6798 31.6 66.0478 27.92 69.8878 25.168C73.7278 22.416 79.1358 21.04 86.1118 21.04C90.7838 21.04 94.7518 21.744 98.0158 23.152C101.344 24.496 103.872 26.544 105.6 29.296C107.392 31.984 108.288 35.312 108.288 39.28V56.848C108.288 59.344 109.408 60.592 111.648 60.592C112.8 60.592 113.728 60.464 114.432 60.208L113.472 69.52C111.552 70.416 109.216 70.864 106.464 70.864C103.968 70.864 101.76 70.48 99.8398 69.712C97.9198 68.88 96.4158 67.664 95.3278 66.064C94.2398 64.4 93.6958 62.32 93.6958 59.824V59.248L95.5198 58.576C95.5198 61.328 94.6878 63.632 93.0238 65.488C91.4238 67.344 89.3118 68.72 86.6878 69.616C84.1278 70.512 81.4398 70.96 78.6238 70.96C75.3598 70.96 72.5118 70.448 70.0798 69.424C67.6478 68.4 65.7598 66.928 64.4158 65.008C63.1358 63.024 62.4958 60.592 62.4958 57.712C62.4958 54.256 63.5198 51.408 65.5678 49.168C67.6798 46.864 70.9758 45.264 75.4558 44.368L93.5998 40.624L93.5038 49.264L84.2878 51.184C82.3678 51.568 80.9278 52.144 79.9678 52.912C79.0718 53.616 78.6238 54.704 78.6238 56.176C78.6238 57.584 79.1358 58.64 80.1598 59.344C81.1838 60.048 82.3998 60.4 83.8078 60.4C84.8958 60.4 85.9198 60.24 86.8798 59.92C87.9038 59.6 88.7998 59.12 89.5678 58.48C90.3358 57.776 90.9438 56.912 91.3918 55.888C91.8398 54.864 92.0638 53.648 92.0638 52.24V39.568ZM137.143 6.736V52.912C137.143 55.216 137.687 56.88 138.775 57.904C139.927 58.864 141.495 59.344 143.479 59.344C145.015 59.344 146.327 59.184 147.415 58.864C148.567 58.48 149.591 57.936 150.487 57.232L152.215 67.312C150.615 68.464 148.599 69.36 146.167 70C143.735 70.64 141.239 70.96 138.679 70.96C135.031 70.96 131.863 70.448 129.175 69.424C126.551 68.4 124.503 66.768 123.031 64.528C121.623 62.288 120.887 59.312 120.823 55.6V11.248L137.143 6.736ZM151.447 22V33.616H112.567V22H151.447ZM184.693 39.568C184.693 37.328 184.053 35.568 182.773 34.288C181.557 32.944 179.893 32.272 177.781 32.272C175.669 32.272 173.845 32.816 172.309 33.904C170.837 34.928 169.813 36.784 169.237 39.472L155.413 36.208C156.309 31.6 158.677 27.92 162.517 25.168C166.357 22.416 171.765 21.04 178.741 21.04C183.413 21.04 187.381 21.744 190.645 23.152C193.973 24.496 196.501 26.544 198.229 29.296C200.021 31.984 200.917 35.312 200.917 39.28V56.848C200.917 59.344 202.037 60.592 204.277 60.592C205.429 60.592 206.357 60.464 207.061 60.208L206.101 69.52C204.181 70.416 201.845 70.864 199.093 70.864C196.597 70.864 194.389 70.48 192.469 69.712C190.549 68.88 189.045 67.664 187.957 66.064C186.869 64.4 186.325 62.32 186.325 59.824V59.248L188.149 58.576C188.149 61.328 187.317 63.632 185.653 65.488C184.053 67.344 181.941 68.72 179.317 69.616C176.757 70.512 174.069 70.96 171.253 70.96C167.989 70.96 165.141 70.448 162.709 69.424C160.277 68.4 158.389 66.928 157.045 65.008C155.765 63.024 155.125 60.592 155.125 57.712C155.125 54.256 156.149 51.408 158.197 49.168C160.309 46.864 163.605 45.264 168.085 44.368L186.229 40.624L186.133 49.264L176.917 51.184C174.997 51.568 173.557 52.144 172.597 52.912C171.701 53.616 171.253 54.704 171.253 56.176C171.253 57.584 171.765 58.64 172.789 59.344C173.813 60.048 175.029 60.4 176.437 60.4C177.525 60.4 178.549 60.24 179.509 59.92C180.533 59.6 181.429 59.12 182.197 58.48C182.965 57.776 183.573 56.912 184.021 55.888C184.469 54.864 184.693 53.648 184.693 52.24V39.568ZM266.433 6.64C271.617 6.64 276.033 7.472 279.681 9.136C283.329 10.8 286.113 13.2 288.033 16.336C289.953 19.472 290.913 23.28 290.913 27.76C290.913 32.24 289.953 36.048 288.033 39.184C286.113 42.32 283.329 44.72 279.681 46.384C276.033 48.048 271.617 48.88 266.433 48.88H253.857V70H237.345V6.64H266.433ZM263.841 36.496C267.297 36.496 269.889 35.792 271.617 34.384C273.409 32.912 274.305 30.704 274.305 27.76C274.305 24.816 273.409 22.64 271.617 21.232C269.889 19.76 267.297 19.024 263.841 19.024H253.857V36.496H263.841ZM319.747 21.04C324.803 21.04 329.219 22.032 332.995 24.016C336.835 25.936 339.811 28.784 341.923 32.56C344.099 36.272 345.187 40.752 345.187 46C345.187 51.248 344.099 55.76 341.923 59.536C339.811 63.248 336.835 66.096 332.995 68.08C329.219 70 324.803 70.96 319.747 70.96C314.819 70.96 310.435 70 306.595 68.08C302.755 66.096 299.747 63.248 297.571 59.536C295.459 55.76 294.403 51.248 294.403 46C294.403 40.752 295.459 36.272 297.571 32.56C299.747 28.784 302.755 25.936 306.595 24.016C310.435 22.032 314.819 21.04 319.747 21.04ZM319.747 32.656C317.891 32.656 316.291 33.104 314.947 34C313.603 34.896 312.579 36.336 311.875 38.32C311.171 40.304 310.819 42.864 310.819 46C310.819 49.136 311.171 51.696 311.875 53.68C312.579 55.6 313.603 57.04 314.947 58C316.291 58.896 317.891 59.344 319.747 59.344C321.667 59.344 323.299 58.896 324.643 58C325.987 57.04 327.011 55.6 327.715 53.68C328.419 51.696 328.771 49.136 328.771 46C328.771 42.864 328.419 40.304 327.715 38.32C327.011 36.336 325.987 34.896 324.643 34C323.299 33.104 321.667 32.656 319.747 32.656ZM352.447 70V22H366.847L367.519 32.368C368.735 28.784 370.527 26 372.895 24.016C375.327 22.032 378.399 21.04 382.111 21.04C383.327 21.04 384.351 21.136 385.183 21.328C386.079 21.52 386.783 21.776 387.295 22.096L385.663 35.536C385.023 35.28 384.191 35.088 383.167 34.96C382.207 34.768 381.023 34.672 379.615 34.672C377.695 34.672 375.903 35.088 374.239 35.92C372.575 36.752 371.231 38 370.207 39.664C369.247 41.264 368.767 43.312 368.767 45.808V70H352.447ZM410.623 6.736V52.912C410.623 55.216 411.167 56.88 412.255 57.904C413.407 58.864 414.975 59.344 416.959 59.344C418.495 59.344 419.807 59.184 420.895 58.864C422.047 58.48 423.071 57.936 423.967 57.232L425.695 67.312C424.095 68.464 422.079 69.36 419.647 70C417.215 70.64 414.719 70.96 412.159 70.96C408.511 70.96 405.343 70.448 402.655 69.424C400.031 68.4 397.983 66.768 396.511 64.528C395.103 62.288 394.367 59.312 394.303 55.6V11.248L410.623 6.736ZM424.927 22V33.616H386.047V22H424.927ZM452.163 0.303999C454.787 0.303999 457.091 0.591999 459.075 1.168C461.059 1.68 462.531 2.288 463.491 2.992L461.859 13.168C461.155 12.72 460.355 12.368 459.459 12.112C458.563 11.856 457.443 11.728 456.099 11.728C453.859 11.728 452.003 12.24 450.531 13.264C449.123 14.288 448.419 16.08 448.419 18.64V24.88L449.379 27.568V70H433.059V17.584C433.059 14.512 433.539 11.888 434.499 9.712C435.523 7.536 436.931 5.744 438.723 4.336C440.515 2.928 442.563 1.904 444.867 1.264C447.171 0.623999 449.603 0.303999 452.163 0.303999ZM463.011 22V33.616H425.379V22H463.011ZM490.098 21.04C495.154 21.04 499.57 22.032 503.346 24.016C507.186 25.936 510.162 28.784 512.274 32.56C514.45 36.272 515.538 40.752 515.538 46C515.538 51.248 514.45 55.76 512.274 59.536C510.162 63.248 507.186 66.096 503.346 68.08C499.57 70 495.154 70.96 490.098 70.96C485.17 70.96 480.786 70 476.946 68.08C473.106 66.096 470.098 63.248 467.922 59.536C465.81 55.76 464.754 51.248 464.754 46C464.754 40.752 465.81 36.272 467.922 32.56C470.098 28.784 473.106 25.936 476.946 24.016C480.786 22.032 485.17 21.04 490.098 21.04ZM490.098 32.656C488.242 32.656 486.642 33.104 485.298 34C483.954 34.896 482.93 36.336 482.226 38.32C481.522 40.304 481.17 42.864 481.17 46C481.17 49.136 481.522 51.696 482.226 53.68C482.93 55.6 483.954 57.04 485.298 58C486.642 58.896 488.242 59.344 490.098 59.344C492.018 59.344 493.65 58.896 494.994 58C496.338 57.04 497.362 55.6 498.066 53.68C498.77 51.696 499.122 49.136 499.122 46C499.122 42.864 498.77 40.304 498.066 38.32C497.362 36.336 496.338 34.896 494.994 34C493.65 33.104 492.018 32.656 490.098 32.656ZM538.927 1.648V53.68C538.927 55.792 539.279 57.296 539.983 58.192C540.687 59.088 541.871 59.536 543.535 59.536C544.495 59.536 545.295 59.472 545.935 59.344C546.575 59.216 547.343 59.024 548.239 58.768L547.183 68.56C546.031 69.264 544.527 69.84 542.671 70.288C540.815 70.736 538.991 70.96 537.199 70.96C532.079 70.96 528.367 69.776 526.063 67.408C523.759 65.04 522.607 61.168 522.607 55.792V1.648H538.927ZM560.445 16.432C557.117 16.432 554.685 15.824 553.149 14.608C551.677 13.328 550.941 11.344 550.941 8.65599C550.941 5.904 551.677 3.92 553.149 2.704C554.685 1.424 557.117 0.783998 560.445 0.783998C563.709 0.783998 566.109 1.424 567.645 2.704C569.181 3.92 569.949 5.904 569.949 8.65599C569.949 11.344 569.181 13.328 567.645 14.608C566.109 15.824 563.709 16.432 560.445 16.432ZM568.605 22V70H552.285V22H568.605ZM601.15 21.04C606.206 21.04 610.622 22.032 614.398 24.016C618.238 25.936 621.214 28.784 623.326 32.56C625.502 36.272 626.59 40.752 626.59 46C626.59 51.248 625.502 55.76 623.326 59.536C621.214 63.248 618.238 66.096 614.398 68.08C610.622 70 606.206 70.96 601.15 70.96C596.222 70.96 591.838 70 587.998 68.08C584.158 66.096 581.15 63.248 578.974 59.536C576.862 55.76 575.806 51.248 575.806 46C575.806 40.752 576.862 36.272 578.974 32.56C581.15 28.784 584.158 25.936 587.998 24.016C591.838 22.032 596.222 21.04 601.15 21.04ZM601.15 32.656C599.294 32.656 597.694 33.104 596.35 34C595.006 34.896 593.982 36.336 593.278 38.32C592.574 40.304 592.222 42.864 592.222 46C592.222 49.136 592.574 51.696 593.278 53.68C593.982 55.6 595.006 57.04 596.35 58C597.694 58.896 599.294 59.344 601.15 59.344C603.07 59.344 604.702 58.896 606.046 58C607.39 57.04 608.414 55.6 609.118 53.68C609.822 51.696 610.174 49.136 610.174 46C610.174 42.864 609.822 40.304 609.118 38.32C608.414 36.336 607.39 34.896 606.046 34C604.702 33.104 603.07 32.656 601.15 32.656Z" fill="url(#paint0_linear_113_20)" fill-opacity="0.4"/>
<defs>
<linearGradient id="paint0_linear_113_20" x1="-181.436" y1="37" x2="603.732" y2="37.6739" gradientUnits="userSpaceOnUse">
<stop stop-color="#18DDE4" stop-opacity="0.19"/>
<stop offset="1" stop-opacity="0"/>
</linearGradient>
</defs>
</svg>
