<svg width="650" height="91" viewBox="0 0 650 91" fill="none" xmlns="http://www.w3.org/2000/svg">
<path d="M26.888 6.64C36.808 6.64 44.392 9.392 49.64 14.896C54.952 20.4 57.608 28.208 57.608 38.32C57.608 48.432 54.952 56.24 49.64 61.744C44.392 67.248 36.808 70 26.888 70H0.00800061V6.64H26.888ZM25.256 57.52C30.632 57.52 34.536 55.92 36.968 52.72C39.464 49.456 40.712 44.656 40.712 38.32C40.712 31.984 39.464 27.216 36.968 24.016C34.536 20.752 30.632 19.12 25.256 19.12H16.52V57.52H25.256ZM92.0638 39.568C92.0638 37.328 91.4238 35.568 90.1438 34.288C88.9278 32.944 87.2638 32.272 85.1518 32.272C83.0398 32.272 81.2158 32.816 79.6798 33.904C78.2078 34.928 77.1838 36.784 76.6078 39.472L62.7838 36.208C63.6798 31.6 66.0478 27.92 69.8878 25.168C73.7278 22.416 79.1358 21.04 86.1118 21.04C90.7838 21.04 94.7518 21.744 98.0158 23.152C101.344 24.496 103.872 26.544 105.6 29.296C107.392 31.984 108.288 35.312 108.288 39.28V56.848C108.288 59.344 109.408 60.592 111.648 60.592C112.8 60.592 113.728 60.464 114.432 60.208L113.472 69.52C111.552 70.416 109.216 70.864 106.464 70.864C103.968 70.864 101.76 70.48 99.8398 69.712C97.9198 68.88 96.4158 67.664 95.3278 66.064C94.2398 64.4 93.6958 62.32 93.6958 59.824V59.248L95.5198 58.576C95.5198 61.328 94.6878 63.632 93.0238 65.488C91.4238 67.344 89.3118 68.72 86.6878 69.616C84.1278 70.512 81.4398 70.96 78.6238 70.96C75.3598 70.96 72.5118 70.448 70.0798 69.424C67.6478 68.4 65.7598 66.928 64.4158 65.008C63.1358 63.024 62.4958 60.592 62.4958 57.712C62.4958 54.256 63.5198 51.408 65.5678 49.168C67.6798 46.864 70.9758 45.264 75.4558 44.368L93.5998 40.624L93.5038 49.264L84.2878 51.184C82.3678 51.568 80.9278 52.144 79.9678 52.912C79.0718 53.616 78.6238 54.704 78.6238 56.176C78.6238 57.584 79.1358 58.64 80.1598 59.344C81.1838 60.048 82.3998 60.4 83.8078 60.4C84.8958 60.4 85.9198 60.24 86.8798 59.92C87.9038 59.6 88.7998 59.12 89.5678 58.48C90.3358 57.776 90.9438 56.912 91.3918 55.888C91.8398 54.864 92.0638 53.648 92.0638 52.24V39.568ZM137.143 6.736V52.912C137.143 55.216 137.687 56.88 138.775 57.904C139.927 58.864 141.495 59.344 143.479 59.344C145.015 59.344 146.327 59.184 147.415 58.864C148.567 58.48 149.591 57.936 150.487 57.232L152.215 67.312C150.615 68.464 148.599 69.36 146.167 70C143.735 70.64 141.239 70.96 138.679 70.96C135.031 70.96 131.863 70.448 129.175 69.424C126.551 68.4 124.503 66.768 123.031 64.528C121.623 62.288 120.887 59.312 120.823 55.6V11.248L137.143 6.736ZM151.447 22V33.616H112.567V22H151.447ZM184.693 39.568C184.693 37.328 184.053 35.568 182.773 34.288C181.557 32.944 179.893 32.272 177.781 32.272C175.669 32.272 173.845 32.816 172.309 33.904C170.837 34.928 169.813 36.784 169.237 39.472L155.413 36.208C156.309 31.6 158.677 27.92 162.517 25.168C166.357 22.416 171.765 21.04 178.741 21.04C183.413 21.04 187.381 21.744 190.645 23.152C193.973 24.496 196.501 26.544 198.229 29.296C200.021 31.984 200.917 35.312 200.917 39.28V56.848C200.917 59.344 202.037 60.592 204.277 60.592C205.429 60.592 206.357 60.464 207.061 60.208L206.101 69.52C204.181 70.416 201.845 70.864 199.093 70.864C196.597 70.864 194.389 70.48 192.469 69.712C190.549 68.88 189.045 67.664 187.957 66.064C186.869 64.4 186.325 62.32 186.325 59.824V59.248L188.149 58.576C188.149 61.328 187.317 63.632 185.653 65.488C184.053 67.344 181.941 68.72 179.317 69.616C176.757 70.512 174.069 70.96 171.253 70.96C167.989 70.96 165.141 70.448 162.709 69.424C160.277 68.4 158.389 66.928 157.045 65.008C155.765 63.024 155.125 60.592 155.125 57.712C155.125 54.256 156.149 51.408 158.197 49.168C160.309 46.864 163.605 45.264 168.085 44.368L186.229 40.624L186.133 49.264L176.917 51.184C174.997 51.568 173.557 52.144 172.597 52.912C171.701 53.616 171.253 54.704 171.253 56.176C171.253 57.584 171.765 58.64 172.789 59.344C173.813 60.048 175.029 60.4 176.437 60.4C177.525 60.4 178.549 60.24 179.509 59.92C180.533 59.6 181.429 59.12 182.197 58.48C182.965 57.776 183.573 56.912 184.021 55.888C184.469 54.864 184.693 53.648 184.693 52.24V39.568ZM292.789 70H275.797L271.381 55.696H249.685L245.173 70H228.565L250.837 6.64H270.613L292.789 70ZM252.757 44.464H268.309L260.533 18.832L252.757 44.464ZM297.086 70V22H311.678L312.542 38.512L310.718 36.688C311.358 33.232 312.478 30.352 314.078 28.048C315.742 25.744 317.79 24.016 320.222 22.864C322.718 21.648 325.502 21.04 328.574 21.04C331.902 21.04 334.782 21.68 337.214 22.96C339.71 24.24 341.662 26.128 343.07 28.624C344.478 31.12 345.182 34.256 345.182 38.032V70H328.862V42.352C328.862 39.024 328.222 36.72 326.942 35.44C325.662 34.16 324.03 33.52 322.046 33.52C320.51 33.52 319.07 33.904 317.726 34.672C316.382 35.376 315.326 36.528 314.558 38.128C313.79 39.728 313.406 41.872 313.406 44.56V70H297.086ZM381.481 39.568C381.481 37.328 380.841 35.568 379.561 34.288C378.345 32.944 376.681 32.272 374.569 32.272C372.457 32.272 370.633 32.816 369.097 33.904C367.625 34.928 366.601 36.784 366.025 39.472L352.201 36.208C353.097 31.6 355.465 27.92 359.305 25.168C363.145 22.416 368.553 21.04 375.529 21.04C380.201 21.04 384.169 21.744 387.433 23.152C390.761 24.496 393.289 26.544 395.017 29.296C396.809 31.984 397.705 35.312 397.705 39.28V56.848C397.705 59.344 398.825 60.592 401.065 60.592C402.217 60.592 403.145 60.464 403.849 60.208L402.889 69.52C400.969 70.416 398.633 70.864 395.881 70.864C393.385 70.864 391.177 70.48 389.257 69.712C387.337 68.88 385.833 67.664 384.745 66.064C383.657 64.4 383.113 62.32 383.113 59.824V59.248L384.937 58.576C384.937 61.328 384.105 63.632 382.441 65.488C380.841 67.344 378.729 68.72 376.105 69.616C373.545 70.512 370.857 70.96 368.041 70.96C364.777 70.96 361.929 70.448 359.497 69.424C357.065 68.4 355.177 66.928 353.833 65.008C352.553 63.024 351.913 60.592 351.913 57.712C351.913 54.256 352.937 51.408 354.985 49.168C357.097 46.864 360.393 45.264 364.873 44.368L383.017 40.624L382.921 49.264L373.705 51.184C371.785 51.568 370.345 52.144 369.385 52.912C368.489 53.616 368.041 54.704 368.041 56.176C368.041 57.584 368.553 58.64 369.577 59.344C370.601 60.048 371.817 60.4 373.225 60.4C374.313 60.4 375.337 60.24 376.297 59.92C377.321 59.6 378.217 59.12 378.985 58.48C379.753 57.776 380.361 56.912 380.809 55.888C381.257 54.864 381.481 53.648 381.481 52.24V39.568ZM424.499 1.648V53.68C424.499 55.792 424.851 57.296 425.555 58.192C426.259 59.088 427.443 59.536 429.107 59.536C430.067 59.536 430.867 59.472 431.507 59.344C432.147 59.216 432.915 59.024 433.811 58.768L432.755 68.56C431.603 69.264 430.099 69.84 428.243 70.288C426.387 70.736 424.563 70.96 422.771 70.96C417.651 70.96 413.939 69.776 411.635 67.408C409.331 65.04 408.179 61.168 408.179 55.792V1.648H424.499ZM484.552 22L467.08 70C465.288 75.056 463.336 79.088 461.224 82.096C459.112 85.104 456.616 87.28 453.736 88.624C450.856 89.968 447.4 90.64 443.368 90.64C440.68 90.64 438.216 90.352 435.976 89.776C433.736 89.2 431.784 88.4 430.12 87.376L433.384 76.336C434.536 77.168 435.752 77.744 437.032 78.064C438.312 78.448 439.944 78.64 441.928 78.64C443.784 78.64 445.288 78.32 446.44 77.68C447.656 77.04 448.616 75.824 449.32 74.032L450.568 71.056L445 58L430.6 22H448.552L455.944 49.36L458.248 59.536L460.936 48.976L468.328 22H484.552ZM508.501 6.736V52.912C508.501 55.216 509.045 56.88 510.133 57.904C511.285 58.864 512.853 59.344 514.837 59.344C516.373 59.344 517.685 59.184 518.773 58.864C519.925 58.48 520.949 57.936 521.845 57.232L523.573 67.312C521.973 68.464 519.957 69.36 517.525 70C515.093 70.64 512.597 70.96 510.037 70.96C506.389 70.96 503.221 70.448 500.533 69.424C497.909 68.4 495.861 66.768 494.389 64.528C492.981 62.288 492.245 59.312 492.181 55.6V11.248L508.501 6.736ZM522.805 22V33.616H483.925V22H522.805ZM536.584 16.432C533.256 16.432 530.824 15.824 529.288 14.608C527.816 13.328 527.08 11.344 527.08 8.65599C527.08 5.904 527.816 3.92 529.288 2.704C530.824 1.424 533.256 0.783998 536.584 0.783998C539.848 0.783998 542.248 1.424 543.784 2.704C545.32 3.92 546.088 5.904 546.088 8.65599C546.088 11.344 545.32 13.328 543.784 14.608C542.248 15.824 539.848 16.432 536.584 16.432ZM544.744 22V70H528.424V22H544.744ZM577.193 21.04C582.057 21.04 586.089 21.744 589.289 23.152C592.553 24.496 595.081 26.32 596.873 28.624C598.729 30.864 599.881 33.296 600.329 35.92L585.257 40.912C584.809 38.16 583.977 36.112 582.761 34.768C581.609 33.36 579.913 32.656 577.673 32.656C575.625 32.656 573.897 33.136 572.489 34.096C571.145 34.992 570.121 36.464 569.417 38.512C568.713 40.496 568.361 43.056 568.361 46.192C568.361 49.328 568.745 51.888 569.513 53.872C570.281 55.792 571.369 57.2 572.777 58.096C574.185 58.928 575.849 59.344 577.769 59.344C579.369 59.344 580.681 59.056 581.705 58.48C582.793 57.84 583.689 56.944 584.393 55.792C585.097 54.64 585.545 53.232 585.737 51.568L600.425 56.272C599.977 59.088 598.761 61.616 596.777 63.856C594.857 66.032 592.297 67.76 589.097 69.04C585.897 70.32 582.153 70.96 577.865 70.96C572.617 70.96 568.041 70 564.137 68.08C560.233 66.096 557.225 63.248 555.113 59.536C553.001 55.76 551.945 51.248 551.945 46C551.945 40.752 553.001 36.272 555.113 32.56C557.225 28.784 560.169 25.936 563.945 24.016C567.785 22.032 572.201 21.04 577.193 21.04ZM627.15 70.96C622.35 70.96 617.87 70.192 613.71 68.656C609.614 67.056 606.222 64.784 603.534 61.84L611.214 52.816C612.814 54.864 614.926 56.592 617.55 58C620.238 59.344 623.214 60.016 626.478 60.016C628.462 60.016 630.094 59.728 631.374 59.152C632.654 58.576 633.294 57.68 633.294 56.464C633.294 55.568 632.974 54.864 632.334 54.352C631.694 53.776 630.414 53.296 628.494 52.912L621.774 51.568C615.758 50.352 611.47 48.56 608.91 46.192C606.414 43.76 605.166 40.592 605.166 36.688C605.166 34.064 605.966 31.568 607.566 29.2C609.166 26.768 611.63 24.816 614.958 23.344C618.286 21.808 622.542 21.04 627.726 21.04C632.59 21.04 636.878 21.744 640.59 23.152C644.302 24.56 647.246 26.608 649.422 29.296L641.646 38.128C640.11 36.208 638.126 34.704 635.694 33.616C633.262 32.528 630.83 31.984 628.398 31.984C626.862 31.984 625.55 32.144 624.462 32.464C623.438 32.72 622.67 33.104 622.158 33.616C621.646 34.128 621.39 34.768 621.39 35.536C621.39 36.368 621.774 37.104 622.542 37.744C623.374 38.32 624.878 38.832 627.054 39.28L635.79 41.008C640.718 41.904 644.27 43.536 646.446 45.904C648.622 48.272 649.71 51.12 649.71 54.448C649.71 57.584 648.878 60.4 647.214 62.896C645.55 65.392 643.054 67.376 639.726 68.848C636.398 70.256 632.206 70.96 627.15 70.96Z" fill="url(#paint0_linear_53_11)" fill-opacity="0.4"/>
<defs>
<linearGradient id="paint0_linear_53_11" x1="-187.735" y1="37" x2="625.784" y2="37.7234" gradientUnits="userSpaceOnUse">
<stop stop-color="#18DDE4" stop-opacity="0.19"/>
<stop offset="1" stop-opacity="0"/>
</linearGradient>
</defs>
</svg>
