<svg width="42" height="70" viewBox="0 0 42 70" fill="none" xmlns="http://www.w3.org/2000/svg">
<g clip-path="url(#clip0_41_76)">
<path d="M28.0621 68.7881V55.6268C28.065 54.9089 28.2554 54.2041 28.6146 53.5821C28.9737 52.9601 29.4891 52.4423 30.1099 52.0799C30.8185 51.6658 31.6351 51.473 32.4545 51.5263C33.2738 51.5795 34.0585 51.8765 34.7073 52.3788L35.9376 53.3241" stroke="white" stroke-miterlimit="10"/>
<path d="M1.21411 30.2332C1.21357 32.5463 1.82381 34.8188 2.98333 36.8216C4.14285 38.8244 5.81071 40.4868 7.81885 41.6413L8.13452 41.8271C10.1648 42.9971 12.4707 43.6063 14.815 43.5921C17.1593 43.5779 19.4576 42.9408 21.4735 41.7463L28.1025 37.8197L31.1864 36.0423C32.2148 35.4477 33.3839 35.1387 34.5723 35.1472C35.7607 35.1557 36.9253 35.4814 37.9451 36.0905C38.9649 36.6997 39.8029 37.5701 40.3722 38.6114C40.9414 39.6528 41.2212 40.8272 41.1825 42.0129L41.1016 45.3982" stroke="white" stroke-width="2" stroke-miterlimit="10" stroke-linecap="round"/>
<path d="M1.21411 62.8174V43.4269C1.21901 41.736 1.67057 40.0763 2.52321 38.6152C3.37586 37.1542 4.59945 35.9434 6.07054 35.1051L21.3521 26.2339C23.3929 25.0587 25.0875 23.3676 26.2655 21.3309C27.4434 19.2942 28.0631 16.9836 28.0621 14.6318V14.6318C28.0631 12.2791 27.4433 9.96767 26.2651 7.92999C25.0869 5.89232 23.3919 4.20032 21.3505 3.02424C19.3092 1.84817 16.9935 1.22949 14.6366 1.23047C12.2796 1.23145 9.96445 1.85204 7.92408 3.02982V3.02982C5.88328 4.20499 4.18863 5.89606 3.01069 7.9328C1.83276 9.96954 1.21311 12.2801 1.21411 14.6318V22.3638" stroke="white" stroke-width="3" stroke-miterlimit="10" stroke-linecap="round"/>
<path d="M28.0621 68.7882V52.9525C28.0663 51.6566 27.7365 50.3813 27.1043 49.2493C26.4721 48.1174 25.5587 47.1668 24.4521 46.489L19.0696 43.6289" stroke="white" stroke-width="3" stroke-miterlimit="10" stroke-linecap="round"/>
</g>
<defs>
<clipPath id="clip0_41_76">
<rect width="42" height="70" fill="white"/>
</clipPath>
</defs>
</svg>
