<svg width="442" height="65" viewBox="0 0 442 65" fill="none" xmlns="http://www.w3.org/2000/svg">
<path d="M57.4 0.639997V38.176C57.4 47.136 55 53.856 50.2 58.336C45.464 62.752 38.424 64.96 29.08 64.96C19.8 64.96 12.76 62.752 7.96 58.336C3.16 53.856 0.76 47.136 0.76 38.176V0.639997H17.368V38.464C17.368 43.008 18.328 46.4 20.248 48.64C22.232 50.88 25.176 52 29.08 52C33.048 52 35.992 50.88 37.912 48.64C39.896 46.4 40.888 43.008 40.888 38.464V0.639997H57.4ZM86.971 64.96C82.171 64.96 77.691 64.192 73.531 62.656C69.435 61.056 66.043 58.784 63.355 55.84L71.035 46.816C72.635 48.864 74.747 50.592 77.371 52C80.059 53.344 83.035 54.016 86.299 54.016C88.283 54.016 89.915 53.728 91.195 53.152C92.475 52.576 93.115 51.68 93.115 50.464C93.115 49.568 92.795 48.864 92.155 48.352C91.515 47.776 90.235 47.296 88.315 46.912L81.595 45.568C75.579 44.352 71.291 42.56 68.731 40.192C66.235 37.76 64.987 34.592 64.987 30.688C64.987 28.064 65.787 25.568 67.387 23.2C68.987 20.768 71.451 18.816 74.779 17.344C78.107 15.808 82.363 15.04 87.547 15.04C92.411 15.04 96.699 15.744 100.411 17.152C104.123 18.56 107.067 20.608 109.243 23.296L101.467 32.128C99.931 30.208 97.947 28.704 95.515 27.616C93.083 26.528 90.651 25.984 88.219 25.984C86.683 25.984 85.371 26.144 84.283 26.464C83.259 26.72 82.491 27.104 81.979 27.616C81.467 28.128 81.211 28.768 81.211 29.536C81.211 30.368 81.595 31.104 82.363 31.744C83.195 32.32 84.699 32.832 86.875 33.28L95.611 35.008C100.539 35.904 104.091 37.536 106.267 39.904C108.443 42.272 109.531 45.12 109.531 48.448C109.531 51.584 108.699 54.4 107.035 56.896C105.371 59.392 102.875 61.376 99.547 62.848C96.219 64.256 92.027 64.96 86.971 64.96ZM139.221 64.96C133.909 64.96 129.301 63.968 125.397 61.984C121.557 60 118.581 57.152 116.469 53.44C114.357 49.728 113.301 45.248 113.301 40C113.301 34.752 114.357 30.272 116.469 26.56C118.581 22.848 121.525 20 125.301 18.016C129.141 16.032 133.525 15.04 138.453 15.04C143.509 15.04 147.797 16.032 151.317 18.016C154.901 19.936 157.621 22.624 159.477 26.08C161.333 29.472 162.261 33.376 162.261 37.792C162.261 38.944 162.229 40.096 162.165 41.248C162.101 42.4 162.005 43.36 161.877 44.128H123.861V35.392H154.677L146.901 38.368C146.901 34.528 146.197 31.584 144.789 29.536C143.445 27.488 141.333 26.464 138.453 26.464C136.405 26.464 134.645 26.944 133.173 27.904C131.765 28.864 130.677 30.368 129.909 32.416C129.205 34.464 128.853 37.088 128.853 40.288C128.853 43.424 129.269 45.984 130.101 47.968C130.933 49.888 132.117 51.296 133.653 52.192C135.189 53.024 137.045 53.44 139.221 53.44C141.653 53.44 143.573 52.96 144.981 52C146.453 51.04 147.541 49.696 148.245 47.968L161.301 52.288C160.405 55.04 158.837 57.376 156.597 59.296C154.421 61.152 151.797 62.56 148.725 63.52C145.717 64.48 142.549 64.96 139.221 64.96ZM169.471 64V16H183.871L184.543 26.368C185.759 22.784 187.551 20 189.919 18.016C192.351 16.032 195.423 15.04 199.135 15.04C200.351 15.04 201.375 15.136 202.207 15.328C203.103 15.52 203.807 15.776 204.319 16.096L202.687 29.536C202.047 29.28 201.215 29.088 200.191 28.96C199.231 28.768 198.047 28.672 196.639 28.672C194.719 28.672 192.927 29.088 191.263 29.92C189.599 30.752 188.255 32 187.231 33.664C186.271 35.264 185.791 37.312 185.791 39.808V64H169.471ZM260.882 0.639997C270.802 0.639997 278.386 3.392 283.634 8.896C288.946 14.4 291.602 22.208 291.602 32.32C291.602 42.432 288.946 50.24 283.634 55.744C278.386 61.248 270.802 64 260.882 64H234.002V0.639997H260.882ZM259.25 51.52C264.626 51.52 268.53 49.92 270.962 46.72C273.458 43.456 274.706 38.656 274.706 32.32C274.706 25.984 273.458 21.216 270.962 18.016C268.53 14.752 264.626 13.12 259.25 13.12H250.514V51.52H259.25ZM326.058 33.568C326.058 31.328 325.418 29.568 324.138 28.288C322.922 26.944 321.258 26.272 319.146 26.272C317.034 26.272 315.21 26.816 313.674 27.904C312.202 28.928 311.178 30.784 310.602 33.472L296.778 30.208C297.674 25.6 300.042 21.92 303.882 19.168C307.722 16.416 313.13 15.04 320.106 15.04C324.778 15.04 328.746 15.744 332.01 17.152C335.338 18.496 337.866 20.544 339.594 23.296C341.386 25.984 342.282 29.312 342.282 33.28V50.848C342.282 53.344 343.402 54.592 345.642 54.592C346.794 54.592 347.722 54.464 348.426 54.208L347.466 63.52C345.546 64.416 343.21 64.864 340.458 64.864C337.962 64.864 335.754 64.48 333.834 63.712C331.914 62.88 330.41 61.664 329.322 60.064C328.234 58.4 327.69 56.32 327.69 53.824V53.248L329.514 52.576C329.514 55.328 328.682 57.632 327.018 59.488C325.418 61.344 323.306 62.72 320.682 63.616C318.122 64.512 315.434 64.96 312.618 64.96C309.354 64.96 306.506 64.448 304.074 63.424C301.642 62.4 299.754 60.928 298.41 59.008C297.13 57.024 296.49 54.592 296.49 51.712C296.49 48.256 297.514 45.408 299.562 43.168C301.674 40.864 304.97 39.264 309.45 38.368L327.594 34.624L327.498 43.264L318.282 45.184C316.362 45.568 314.922 46.144 313.962 46.912C313.066 47.616 312.618 48.704 312.618 50.176C312.618 51.584 313.13 52.64 314.154 53.344C315.178 54.048 316.394 54.4 317.802 54.4C318.89 54.4 319.914 54.24 320.874 53.92C321.898 53.6 322.794 53.12 323.562 52.48C324.33 51.776 324.938 50.912 325.386 49.888C325.834 48.864 326.058 47.648 326.058 46.24V33.568ZM371.136 0.735996V46.912C371.136 49.216 371.68 50.88 372.768 51.904C373.92 52.864 375.488 53.344 377.472 53.344C379.008 53.344 380.32 53.184 381.408 52.864C382.56 52.48 383.584 51.936 384.48 51.232L386.208 61.312C384.608 62.464 382.592 63.36 380.16 64C377.728 64.64 375.232 64.96 372.672 64.96C369.024 64.96 365.856 64.448 363.168 63.424C360.544 62.4 358.496 60.768 357.024 58.528C355.616 56.288 354.88 53.312 354.816 49.6V5.248L371.136 0.735996ZM385.44 16V27.616H346.56V16H385.44ZM418.686 33.568C418.686 31.328 418.046 29.568 416.766 28.288C415.55 26.944 413.886 26.272 411.774 26.272C409.662 26.272 407.838 26.816 406.302 27.904C404.83 28.928 403.806 30.784 403.23 33.472L389.406 30.208C390.302 25.6 392.67 21.92 396.51 19.168C400.35 16.416 405.758 15.04 412.734 15.04C417.406 15.04 421.374 15.744 424.638 17.152C427.966 18.496 430.494 20.544 432.222 23.296C434.014 25.984 434.91 29.312 434.91 33.28V50.848C434.91 53.344 436.03 54.592 438.27 54.592C439.422 54.592 440.35 54.464 441.054 54.208L440.094 63.52C438.174 64.416 435.838 64.864 433.086 64.864C430.59 64.864 428.382 64.48 426.462 63.712C424.542 62.88 423.038 61.664 421.95 60.064C420.862 58.4 420.318 56.32 420.318 53.824V53.248L422.142 52.576C422.142 55.328 421.31 57.632 419.646 59.488C418.046 61.344 415.934 62.72 413.31 63.616C410.75 64.512 408.062 64.96 405.246 64.96C401.982 64.96 399.134 64.448 396.702 63.424C394.27 62.4 392.382 60.928 391.038 59.008C389.758 57.024 389.118 54.592 389.118 51.712C389.118 48.256 390.142 45.408 392.19 43.168C394.302 40.864 397.598 39.264 402.078 38.368L420.222 34.624L420.126 43.264L410.91 45.184C408.99 45.568 407.55 46.144 406.59 46.912C405.694 47.616 405.246 48.704 405.246 50.176C405.246 51.584 405.758 52.64 406.782 53.344C407.806 54.048 409.022 54.4 410.43 54.4C411.518 54.4 412.542 54.24 413.502 53.92C414.526 53.6 415.422 53.12 416.19 52.48C416.958 51.776 417.566 50.912 418.014 49.888C418.462 48.864 418.686 47.648 418.686 46.24V33.568Z" fill="url(#paint0_linear_53_12)" fill-opacity="0.4"/>
<defs>
<linearGradient id="paint0_linear_53_12" x1="-127.407" y1="31" x2="423.567" y2="31.3318" gradientUnits="userSpaceOnUse">
<stop stop-color="#18DDE4" stop-opacity="0.19"/>
<stop offset="1" stop-opacity="0"/>
</linearGradient>
</defs>
</svg>
