<svg width="773" height="91" viewBox="0 0 773 91" fill="none" xmlns="http://www.w3.org/2000/svg">
<path d="M19.2 70L0.96 6.64H18.528L29.28 56.656L40.608 6.64H55.584L67.2 56.56L77.76 6.64H94.752L76.416 70H58.464L50.976 39.28L48.096 23.824H47.904L45.12 39.28L37.728 70H19.2ZM117.347 21.04C122.403 21.04 126.819 22.032 130.595 24.016C134.435 25.936 137.411 28.784 139.523 32.56C141.699 36.272 142.787 40.752 142.787 46C142.787 51.248 141.699 55.76 139.523 59.536C137.411 63.248 134.435 66.096 130.595 68.08C126.819 70 122.403 70.96 117.347 70.96C112.419 70.96 108.035 70 104.195 68.08C100.355 66.096 97.3465 63.248 95.1705 59.536C93.0585 55.76 92.0025 51.248 92.0025 46C92.0025 40.752 93.0585 36.272 95.1705 32.56C97.3465 28.784 100.355 25.936 104.195 24.016C108.035 22.032 112.419 21.04 117.347 21.04ZM117.347 32.656C115.491 32.656 113.891 33.104 112.547 34C111.203 34.896 110.179 36.336 109.475 38.32C108.771 40.304 108.419 42.864 108.419 46C108.419 49.136 108.771 51.696 109.475 53.68C110.179 55.6 111.203 57.04 112.547 58C113.891 58.896 115.491 59.344 117.347 59.344C119.267 59.344 120.899 58.896 122.243 58C123.587 57.04 124.611 55.6 125.315 53.68C126.019 51.696 126.371 49.136 126.371 46C126.371 42.864 126.019 40.304 125.315 38.32C124.611 36.336 123.587 34.896 122.243 34C120.899 33.104 119.267 32.656 117.347 32.656ZM150.047 70V22H164.447L165.119 32.368C166.335 28.784 168.127 26 170.495 24.016C172.927 22.032 175.999 21.04 179.711 21.04C180.927 21.04 181.951 21.136 182.783 21.328C183.679 21.52 184.383 21.776 184.895 22.096L183.263 35.536C182.623 35.28 181.791 35.088 180.767 34.96C179.807 34.768 178.623 34.672 177.215 34.672C175.295 34.672 173.503 35.088 171.839 35.92C170.175 36.752 168.831 38 167.807 39.664C166.847 41.264 166.367 43.312 166.367 45.808V70H150.047ZM242.081 22L219.041 46.576L215.969 47.44L202.241 62.8L202.145 46.096L223.937 22H242.081ZM205.697 1.648V70H189.377V1.648H205.697ZM221.537 36.4L243.137 70H225.089L210.881 46L221.537 36.4ZM272.377 70V6.64H321.721V19.408H288.889V32.272H315.001V44.272H288.889V57.232H322.969V70H272.377ZM343.979 22L355.691 43.6L361.067 43.12L379.979 70H361.259L349.163 48.112H343.499L325.163 22H343.979ZM379.595 22L361.451 47.92L355.403 47.536L342.827 70H324.491L343.787 42.928L349.355 43.696L361.259 22H379.595ZM384.478 90.16V22H399.166L400.03 39.376L398.11 37.36C398.558 34.16 399.55 31.344 401.086 28.912C402.622 26.48 404.606 24.56 407.038 23.152C409.47 21.744 412.254 21.04 415.39 21.04C419.358 21.04 422.814 22.032 425.759 24.016C428.702 25.936 430.974 28.752 432.575 32.464C434.238 36.112 435.07 40.56 435.07 45.808C435.07 51.056 434.238 55.568 432.575 59.344C430.91 63.12 428.574 66 425.566 67.984C422.622 69.968 419.166 70.96 415.198 70.96C410.846 70.96 407.326 69.68 404.639 67.12C401.95 64.496 400.158 61.2 399.262 57.232L400.798 54.928V90.16H384.478ZM409.63 58.96C412.446 58.96 414.654 57.936 416.254 55.888C417.854 53.776 418.655 50.48 418.655 46C418.655 41.52 417.854 38.256 416.254 36.208C414.719 34.096 412.542 33.04 409.726 33.04C407.934 33.04 406.366 33.552 405.022 34.576C403.678 35.536 402.622 36.976 401.854 38.896C401.15 40.816 400.798 43.184 400.798 46C400.798 48.688 401.118 51.024 401.758 53.008C402.462 54.928 403.486 56.4 404.83 57.424C406.174 58.448 407.774 58.96 409.63 58.96ZM466.17 70.96C460.858 70.96 456.25 69.968 452.346 67.984C448.506 66 445.53 63.152 443.418 59.44C441.306 55.728 440.25 51.248 440.25 46C440.25 40.752 441.306 36.272 443.418 32.56C445.53 28.848 448.474 26 452.25 24.016C456.09 22.032 460.474 21.04 465.402 21.04C470.458 21.04 474.746 22.032 478.266 24.016C481.85 25.936 484.57 28.624 486.426 32.08C488.282 35.472 489.21 39.376 489.21 43.792C489.21 44.944 489.178 46.096 489.114 47.248C489.05 48.4 488.954 49.36 488.826 50.128H450.81V41.392H481.626L473.85 44.368C473.85 40.528 473.146 37.584 471.738 35.536C470.394 33.488 468.282 32.464 465.402 32.464C463.354 32.464 461.594 32.944 460.122 33.904C458.714 34.864 457.626 36.368 456.858 38.416C456.154 40.464 455.802 43.088 455.802 46.288C455.802 49.424 456.218 51.984 457.05 53.968C457.882 55.888 459.066 57.296 460.602 58.192C462.138 59.024 463.994 59.44 466.17 59.44C468.602 59.44 470.522 58.96 471.93 58C473.402 57.04 474.49 55.696 475.194 53.968L488.25 58.288C487.354 61.04 485.786 63.376 483.546 65.296C481.37 67.152 478.746 68.56 475.674 69.52C472.666 70.48 469.498 70.96 466.17 70.96ZM496.42 70V22H510.82L511.492 32.368C512.708 28.784 514.5 26 516.868 24.016C519.3 22.032 522.372 21.04 526.084 21.04C527.3 21.04 528.324 21.136 529.156 21.328C530.052 21.52 530.756 21.776 531.268 22.096L529.636 35.536C528.996 35.28 528.164 35.088 527.14 34.96C526.18 34.768 524.996 34.672 523.588 34.672C521.668 34.672 519.876 35.088 518.212 35.92C516.548 36.752 515.204 38 514.18 39.664C513.22 41.264 512.74 43.312 512.74 45.808V70H496.42ZM543.91 16.432C540.582 16.432 538.15 15.824 536.614 14.608C535.142 13.328 534.406 11.344 534.406 8.65599C534.406 5.904 535.142 3.92 536.614 2.704C538.15 1.424 540.582 0.783998 543.91 0.783998C547.174 0.783998 549.574 1.424 551.11 2.704C552.646 3.92 553.414 5.904 553.414 8.65599C553.414 11.344 552.646 13.328 551.11 14.608C549.574 15.824 547.174 16.432 543.91 16.432ZM552.07 22V70H535.75V22H552.07ZM585.191 70.96C579.879 70.96 575.271 69.968 571.367 67.984C567.527 66 564.551 63.152 562.439 59.44C560.327 55.728 559.271 51.248 559.271 46C559.271 40.752 560.327 36.272 562.439 32.56C564.551 28.848 567.495 26 571.271 24.016C575.111 22.032 579.495 21.04 584.423 21.04C589.479 21.04 593.767 22.032 597.287 24.016C600.871 25.936 603.591 28.624 605.447 32.08C607.303 35.472 608.231 39.376 608.231 43.792C608.231 44.944 608.199 46.096 608.135 47.248C608.071 48.4 607.975 49.36 607.847 50.128H569.831V41.392H600.647L592.871 44.368C592.871 40.528 592.167 37.584 590.759 35.536C589.415 33.488 587.303 32.464 584.423 32.464C582.375 32.464 580.615 32.944 579.143 33.904C577.735 34.864 576.647 36.368 575.879 38.416C575.175 40.464 574.823 43.088 574.823 46.288C574.823 49.424 575.239 51.984 576.071 53.968C576.903 55.888 578.087 57.296 579.623 58.192C581.159 59.024 583.015 59.44 585.191 59.44C587.623 59.44 589.543 58.96 590.951 58C592.423 57.04 593.511 55.696 594.215 53.968L607.271 58.288C606.375 61.04 604.807 63.376 602.567 65.296C600.391 67.152 597.767 68.56 594.695 69.52C591.687 70.48 588.519 70.96 585.191 70.96ZM615.441 70V22H630.033L630.897 38.512L629.073 36.688C629.713 33.232 630.833 30.352 632.433 28.048C634.097 25.744 636.145 24.016 638.577 22.864C641.073 21.648 643.857 21.04 646.929 21.04C650.257 21.04 653.137 21.68 655.569 22.96C658.065 24.24 660.017 26.128 661.425 28.624C662.833 31.12 663.537 34.256 663.537 38.032V70H647.217V42.352C647.217 39.024 646.577 36.72 645.297 35.44C644.017 34.16 642.385 33.52 640.401 33.52C638.865 33.52 637.425 33.904 636.081 34.672C634.737 35.376 633.681 36.528 632.913 38.128C632.145 39.728 631.761 41.872 631.761 44.56V70H615.441ZM695.804 21.04C700.668 21.04 704.7 21.744 707.9 23.152C711.164 24.496 713.692 26.32 715.484 28.624C717.34 30.864 718.492 33.296 718.94 35.92L703.868 40.912C703.42 38.16 702.588 36.112 701.372 34.768C700.22 33.36 698.524 32.656 696.284 32.656C694.236 32.656 692.508 33.136 691.1 34.096C689.756 34.992 688.732 36.464 688.028 38.512C687.324 40.496 686.972 43.056 686.972 46.192C686.972 49.328 687.356 51.888 688.124 53.872C688.892 55.792 689.98 57.2 691.388 58.096C692.796 58.928 694.46 59.344 696.38 59.344C697.98 59.344 699.292 59.056 700.316 58.48C701.404 57.84 702.3 56.944 703.004 55.792C703.708 54.64 704.156 53.232 704.348 51.568L719.036 56.272C718.588 59.088 717.372 61.616 715.388 63.856C713.468 66.032 710.908 67.76 707.708 69.04C704.508 70.32 700.764 70.96 696.476 70.96C691.228 70.96 686.652 70 682.748 68.08C678.844 66.096 675.836 63.248 673.724 59.536C671.612 55.76 670.556 51.248 670.556 46C670.556 40.752 671.612 36.272 673.724 32.56C675.836 28.784 678.78 25.936 682.556 24.016C686.396 22.032 690.812 21.04 695.804 21.04ZM749.025 70.96C743.713 70.96 739.105 69.968 735.201 67.984C731.361 66 728.385 63.152 726.273 59.44C724.161 55.728 723.105 51.248 723.105 46C723.105 40.752 724.161 36.272 726.273 32.56C728.385 28.848 731.329 26 735.105 24.016C738.945 22.032 743.329 21.04 748.257 21.04C753.313 21.04 757.601 22.032 761.121 24.016C764.705 25.936 767.425 28.624 769.281 32.08C771.137 35.472 772.065 39.376 772.065 43.792C772.065 44.944 772.033 46.096 771.969 47.248C771.905 48.4 771.809 49.36 771.681 50.128H733.665V41.392H764.481L756.705 44.368C756.705 40.528 756.001 37.584 754.593 35.536C753.249 33.488 751.137 32.464 748.257 32.464C746.209 32.464 744.449 32.944 742.977 33.904C741.569 34.864 740.481 36.368 739.713 38.416C739.009 40.464 738.657 43.088 738.657 46.288C738.657 49.424 739.073 51.984 739.905 53.968C740.737 55.888 741.921 57.296 743.457 58.192C744.993 59.024 746.849 59.44 749.025 59.44C751.457 59.44 753.377 58.96 754.785 58C756.257 57.04 757.345 55.696 758.049 53.968L771.105 58.288C770.209 61.04 768.641 63.376 766.401 65.296C764.225 67.152 761.601 68.56 758.529 69.52C755.521 70.48 752.353 70.96 749.025 70.96Z" fill="url(#paint0_linear_53_8)" fill-opacity="0.4"/>
<defs>
<linearGradient id="paint0_linear_53_8" x1="-212.5" y1="37" x2="744" y2="38.0001" gradientUnits="userSpaceOnUse">
<stop stop-color="#18DDE4" stop-opacity="0.19"/>
<stop offset="1" stop-opacity="0"/>
</linearGradient>
</defs>
</svg>
